name C:\Users\u0101727\Documents\MyRepositories\paper-ad\predictivesimulations_2d/Results/PredSim_2D/IK_c32.mot
datacolumns 11
datarows 17
range 1.28492302 1.43950023
endheader
time	pelvis_tilt	pelvis_tx	pelvis_ty	hip_flexion_l	hip_flexion_r	knee_angle_l	knee_angle_r	ankle_angle_l	ankle_angle_r	lumbar_extension	
          1.28492302	        -16.03139455	          1.70486404	          0.89943209	         35.12938783	         11.30204729	        -37.32006961	         -6.66900882	         15.42267378	         11.46231911	         10.23185664	
          1.29458410	        -16.03323850	          1.71690620	          0.89844884	         36.07341094	         10.52968143	        -35.79219496	         -6.73496328	         15.66824290	         11.54831343	         10.18618740	
          1.30424517	        -16.03652004	          1.72901576	          0.89740438	         36.94888363	          9.77313408	        -34.15308777	         -6.83344941	         15.84037011	         11.61372902	         10.14448346	
          1.31390625	        -16.04163543	          1.74119969	          0.89630232	         37.75007288	          9.03247914	        -32.40676476	         -6.96550017	         15.94749631	         11.66153352	         10.10722415	
          1.32356732	        -16.04888585	          1.75346605	          0.89514502	         38.47134107	          8.30780092	        -30.56012708	         -7.13170906	         15.99773885	         11.69185711	         10.07498208	
          1.33322840	        -16.05808676	          1.76582575	          0.89393587	         39.10839767	          7.59995006	        -28.64446847	         -7.33568623	         15.99854522	         11.70411775	         10.04827666	
          1.34288948	        -16.06892899	          1.77829438	          0.89268460	         39.65273990	          6.91065529	        -26.69826375	         -7.58364745	         15.95641929	         11.69529577	         10.02814550	
          1.35255055	        -16.08117737	          1.79089034	          0.89140883	         40.09289368	          6.24245453	        -24.75142546	         -7.88250263	         15.87689088	         11.65650405	         10.01606745	
          1.36221163	        -16.09428153	          1.80363202	          0.89013127	         40.42157833	          5.59937016	        -22.82916133	         -8.24133282	         15.76437304	         11.57381578	         10.01326118	
          1.37187270	        -16.10717359	          1.81653566	          0.88887398	         40.64110748	          4.98590735	        -20.95911653	         -8.67004323	         15.62189620	         11.43267937	         10.02023802	
          1.38153378	        -16.11851963	          1.82961600	          0.88765547	         40.75853943	          4.40740251	        -19.16469875	         -9.17997563	         15.45102010	         11.21989175	         10.03710876	
          1.39119485	        -16.12720456	          1.84288870	          0.88649142	         40.77827250	          3.86965915	        -17.45411132	         -9.78245773	         15.25210834	         10.92164900	         10.06428430	
          1.40085593	        -16.13218817	          1.85636930	          0.88539366	         40.70561334	          3.37795090	        -15.83732765	        -10.48730391	         15.02426454	         10.52420682	         10.10216322	
          1.41051700	        -16.13231541	          1.87007242	          0.88436927	         40.54788816	          2.93749528	        -14.33273756	        -11.30423409	         14.76532929	         10.01540238	         10.15091832	
          1.42017808	        -16.12646511	          1.88401273	          0.88342021	         40.30974512	          2.55425335	        -12.95502715	        -12.24396275	         14.47248677	          9.38327556	         10.21088645	
          1.42983915	        -16.11338455	          1.89820407	          0.88254226	         39.99482676	          2.23498005	        -11.72131842	        -13.31839059	         14.14225870	          8.61596333	         10.28240525	
          1.43950023	        -16.09150657	          1.91265787	          0.88172356	         39.60963323	          1.98601300	        -10.66396074	        -14.53879866	         13.76998172	          7.70524082	         10.36553208	
